REM DIRINDEX 1\2,1\4,1\3\5,1\3\6,1\3\7
REM DIRNAME cjc083,folder01,folder02,folder03,folder04,folder05,folder06
TITLE ""
FILE "CD1Track13.mp3" MP3
  TRACK 01 AUDIO
    TITLE "0:"
    INDEX 01 00:00:00
  TRACK 02 AUDIO
    TITLE "5:cjc083_0255"
    INDEX 01 00:00:31
  TRACK 03 AUDIO
    TITLE "0:"
    INDEX 01 00:02:08
  TRACK 04 AUDIO
    TITLE "6:cjc083_0256"
    INDEX 01 00:02:49
  TRACK 05 AUDIO
    TITLE "0:"
    INDEX 01 00:04:46
  TRACK 06 AUDIO
    TITLE "5:cjc083_0257"
    INDEX 01 00:05:16
  TRACK 07 AUDIO
    TITLE "0:"
    INDEX 01 00:06:26
  TRACK 08 AUDIO
    TITLE "6:cjc083_0258"
    INDEX 01 00:06:71
  TRACK 09 AUDIO
    TITLE "0:"
    INDEX 01 00:08:11
  TRACK 10 AUDIO
    TITLE "5:cjc083_0259"
    INDEX 01 00:08:54
  TRACK 11 AUDIO
    TITLE "0:"
    INDEX 01 00:09:65
  TRACK 12 AUDIO
    TITLE "6:cjc083_0260"
    INDEX 01 00:10:37
  TRACK 13 AUDIO
    TITLE "0:"
    INDEX 01 00:12:05
  TRACK 14 AUDIO
    TITLE "5:cjc083_0261"
    INDEX 01 00:12:48
  TRACK 15 AUDIO
    TITLE "0:"
    INDEX 01 00:13:71
  TRACK 16 AUDIO
    TITLE "6:cjc083_0262"
    INDEX 01 00:14:47
  TRACK 17 AUDIO
    TITLE "0:"
    INDEX 01 00:15:70
  TRACK 18 AUDIO
    TITLE "5:cjc083_0263"
    INDEX 01 00:16:38
  TRACK 19 AUDIO
    TITLE "0:"
    INDEX 01 00:18:07
  TRACK 20 AUDIO
    TITLE "6:cjc083_0264"
    INDEX 01 00:18:46
  TRACK 21 AUDIO
    TITLE "0:"
    INDEX 01 00:21:02
  TRACK 22 AUDIO
    TITLE "5:cjc083_0265"
    INDEX 01 00:21:47
  TRACK 23 AUDIO
    TITLE "0:"
    INDEX 01 00:22:56
  TRACK 24 AUDIO
    TITLE "6:cjc083_0266"
    INDEX 01 00:23:30
  TRACK 25 AUDIO
    TITLE "0:"
    INDEX 01 00:24:47
  TRACK 26 AUDIO
    TITLE "5:cjc083_0267"
    INDEX 01 00:25:17
  TRACK 27 AUDIO
    TITLE "0:"
    INDEX 01 00:26:38
  TRACK 28 AUDIO
    TITLE "6:cjc083_0268"
    INDEX 01 00:27:04
  TRACK 29 AUDIO
    TITLE "0:"
    INDEX 01 00:28:25
  TRACK 30 AUDIO
    TITLE "5:cjc083_0269"
    INDEX 01 00:28:72
  TRACK 31 AUDIO
    TITLE "0:"
    INDEX 01 00:30:01
  TRACK 32 AUDIO
    TITLE "6:cjc083_0270"
    INDEX 01 00:30:52
  TRACK 33 AUDIO
    TITLE "0:"
    INDEX 01 00:31:53
  TRACK 34 AUDIO
    TITLE "5:cjc083_0271"
    INDEX 01 00:32:25
  TRACK 35 AUDIO
    TITLE "0:"
    INDEX 01 00:33:50
  TRACK 36 AUDIO
    TITLE "6:cjc083_0272"
    INDEX 01 00:34:24
  TRACK 37 AUDIO
    TITLE "0:"
    INDEX 01 00:35:74
  TRACK 38 AUDIO
    TITLE "5:cjc083_0273"
    INDEX 01 00:36:38
  TRACK 39 AUDIO
    TITLE "0:"
    INDEX 01 00:37:50
  TRACK 40 AUDIO
    TITLE "6:cjc083_0274"
    INDEX 01 00:38:16
  TRACK 41 AUDIO
    TITLE "0:"
    INDEX 01 00:39:17
  TRACK 42 AUDIO
    TITLE "5:cjc083_0275"
    INDEX 01 00:39:58
  TRACK 43 AUDIO
    TITLE "0:"
    INDEX 01 00:40:62
  TRACK 44 AUDIO
    TITLE "6:cjc083_0276"
    INDEX 01 00:41:32
  TRACK 45 AUDIO
    TITLE "0:"
    INDEX 01 00:43:35
  TRACK 46 AUDIO
    TITLE "5:cjc083_0277"
    INDEX 01 00:44:05
  TRACK 47 AUDIO
    TITLE "0:"
    INDEX 01 00:45:04
  TRACK 48 AUDIO
    TITLE "6:cjc083_0278"
    INDEX 01 00:45:55
  TRACK 49 AUDIO
    TITLE "0:"
    INDEX 01 00:47:01
  TRACK 50 AUDIO
    TITLE "5:cjc083_0279"
    INDEX 01 00:47:42
  TRACK 51 AUDIO
    TITLE "0:"
    INDEX 01 00:48:48
  TRACK 52 AUDIO
    TITLE "6:cjc083_0280"
    INDEX 01 00:49:20
  TRACK 53 AUDIO
    TITLE "0:"
    INDEX 01 00:50:50
  TRACK 54 AUDIO
    TITLE "5:cjc083_0281"
    INDEX 01 00:51:15
  TRACK 55 AUDIO
    TITLE "0:"
    INDEX 01 00:52:26
  TRACK 56 AUDIO
    TITLE "6:cjc083_0282"
    INDEX 01 00:52:65
  TRACK 57 AUDIO
    TITLE "0:"
    INDEX 01 00:53:70
  TRACK 58 AUDIO
    TITLE "5:cjc083_0283"
    INDEX 01 00:54:40
  TRACK 59 AUDIO
    TITLE "0:"
    INDEX 01 00:55:44
  TRACK 60 AUDIO
    TITLE "6:cjc083_0284"
    INDEX 01 00:56:18
  TRACK 61 AUDIO
    TITLE "0:"
    INDEX 01 00:57:41
  TRACK 62 AUDIO
    TITLE "7:cjc083_0285"
    INDEX 01 00:59:02
  TRACK 63 AUDIO
    TITLE "0:"
    INDEX 01 01:09:38
